<?xml version="1.0" encoding="UTF-8"?>
<svg width="974px" height="1784px" viewBox="0 0 974 1784" version="1.1" xmlns="http://www.w3.org/2000/svg" xmlns:xlink="http://www.w3.org/1999/xlink">
    <!-- Generator: Sketch 41.2 (35397) - http://www.bohemiancoding.com/sketch -->
    <title>iphone copy</title>
    <desc>Created with Sketch.</desc>
    <defs>
        <filter x="-50%" y="-50%" width="200%" height="200%" filterUnits="objectBoundingBox" id="filter-1">
            <feOffset dx="0" dy="0" in="SourceAlpha" result="shadowOffsetOuter1"></feOffset>
            <feGaussianBlur stdDeviation="42" in="shadowOffsetOuter1" result="shadowBlurOuter1"></feGaussianBlur>
            <feColorMatrix values="0 0 0 0 0   0 0 0 0 0   0 0 0 0 0  0 0 0 0.1 0" type="matrix" in="shadowBlurOuter1" result="shadowMatrixOuter1"></feColorMatrix>
            <feMerge>
                <feMergeNode in="shadowMatrixOuter1"></feMergeNode>
                <feMergeNode in="SourceGraphic"></feMergeNode>
            </feMerge>
        </filter>
        <path d="M802,426 L802,1503.80897 C802,1565.77036 751.767124,1616 689.818248,1616 L120.181752,1616 C58.225481,1616 8,1565.75256 8,1503.80897 L8,564 L5.35030462,564 C3.47778008,564 1.95979899,562.486866 1.95979899,560.587296 L1.95979899,457.412704 C1.95979899,455.52792 3.4662557,454 5.35030462,454 L8,454 L8,426 L5.35030462,426 C3.47778008,426 1.95979899,424.486866 1.95979899,422.587296 L1.95979899,319.412704 C1.95979899,317.52792 3.4662557,316 5.35030462,316 L8,316 L8,246 L5.35030462,246 C3.47778008,246 1.95979899,244.478454 1.95979899,242.588372 L1.95979899,191.411629 C1.95979899,189.527438 3.4662557,188 5.35030462,188 L8,188 L8,112.191034 C8,50.2296366 58.2328752,0 120.181752,0 L689.818248,0 C751.774518,0 802,50.2474368 802,112.191034 L802,316 L804.64467,316 C806.517194,316 808.035176,317.513134 808.035176,319.412704 L808.035176,422.587296 C808.035176,424.47208 806.52872,426 804.64467,426 L802,426 Z" id="path-2"></path>
    </defs>
    <g id="Page-1" stroke="none" stroke-width="1" fill="none" fill-rule="evenodd">
        <g id="iphone-copy" filter="url(#filter-1)" transform="translate(82.000000, 84.000000)">
            <g id="Page-1">
                <g id="cloudcast">
                    <g id="iphone-copy">
                        <g id="Combined-Shape">
                            <g id="path-1-link" stroke="#979797">
                                <path d="M802,426 L802,1503.80897 C802,1565.77036 751.767124,1616 689.818248,1616 L120.181752,1616 C58.225481,1616 8,1565.75256 8,1503.80897 L8,564 L5.35030462,564 C3.47778008,564 1.95979899,562.486866 1.95979899,560.587296 L1.95979899,457.412704 C1.95979899,455.52792 3.4662557,454 5.35030462,454 L8,454 L8,426 L5.35030462,426 C3.47778008,426 1.95979899,424.486866 1.95979899,422.587296 L1.95979899,319.412704 C1.95979899,317.52792 3.4662557,316 5.35030462,316 L8,316 L8,246 L5.35030462,246 C3.47778008,246 1.95979899,244.478454 1.95979899,242.588372 L1.95979899,191.411629 C1.95979899,189.527438 3.4662557,188 5.35030462,188 L8,188 L8,112.191034 C8,50.2296366 58.2328752,0 120.181752,0 L689.818248,0 C751.774518,0 802,50.2474368 802,112.191034 L802,316 L804.64467,316 C806.517194,316 808.035176,317.513134 808.035176,319.412704 L808.035176,422.587296 C808.035176,424.47208 806.52872,426 804.64467,426 L802,426 Z" id="path-1"></path>
                            </g>
                            <g id="Clipped">
                                <mask id="mask-3" fill="white">
                                    <use xlink:href="#path-2"></use>
                                </mask>
                                <g id="path-1"></g>
                                <g id="path-1-link" mask="url(#mask-3)" stroke-opacity="0.0507246377" stroke="#000000" stroke-width="13.6" fill="#FFFFFF">
                                    <path d="M802,426 L802,1503.80897 C802,1565.77036 751.767124,1616 689.818248,1616 L120.181752,1616 C58.225481,1616 8,1565.75256 8,1503.80897 L8,564 L5.35030462,564 C3.47778008,564 1.95979899,562.486866 1.95979899,560.587296 L1.95979899,457.412704 C1.95979899,455.52792 3.4662557,454 5.35030462,454 L8,454 L8,426 L5.35030462,426 C3.47778008,426 1.95979899,424.486866 1.95979899,422.587296 L1.95979899,319.412704 C1.95979899,317.52792 3.4662557,316 5.35030462,316 L8,316 L8,246 L5.35030462,246 C3.47778008,246 1.95979899,244.478454 1.95979899,242.588372 L1.95979899,191.411629 C1.95979899,189.527438 3.4662557,188 5.35030462,188 L8,188 L8,112.191034 C8,50.2296366 58.2328752,0 120.181752,0 L689.818248,0 C751.774518,0 802,50.2474368 802,112.191034 L802,316 L804.64467,316 C806.517194,316 808.035176,317.513134 808.035176,319.412704 L808.035176,422.587296 C808.035176,424.47208 806.52872,426 804.64467,426 L802,426 Z" id="path-1"></path>
                                </g>
                            </g>
                        </g>
                    </g>
                </g>
            </g>
        </g>
    </g>
</svg>