<?xml version="1.0" encoding="UTF-8" standalone="no"?>
<svg width="133px" height="43px" viewBox="0 0 133 43" version="1.1" xmlns="http://www.w3.org/2000/svg" xmlns:xlink="http://www.w3.org/1999/xlink">
    <!-- Generator: Sketch 39 (31667) - http://www.bohemiancoding.com/sketch -->
    <title>vicki</title>
    <desc>Created with Sketch.</desc>
    <defs></defs>
    <g id="Page-1" stroke="none" stroke-width="1" fill="none" fill-rule="evenodd">
        <g id="Artboard-2" transform="translate(-16.000000, -32.000000)" fill="#333333">
            <path d="M34.36,74 L47.68,44 L40.3,44 L31.84,64.82 L23.38,44 L16,44 L29.32,74 L34.36,74 Z M52,44 L52,74 L59,74 L59,44 L52,44 Z M79.66,74.4400005 C84.7,74.4400005 88.6,72.5200005 91.12,70.0000005 L87.4,64.8400004 C85.48,66.6400004 82.96,68.1400004 79.66,68.1400004 C74.56,68.1400004 70.66,64.4200004 70.66,58.7200003 C70.66,52.9600002 74.56,49.3000001 79.72,49.3000001 C82.9,49.3000001 85.24,50.6800001 87.1,52.4800002 L91,47.3800001 C88.3,44.68 84.58,43 79.9,43 C70.48,43 64,49.5400001 64,58.7800003 C64,68.0200004 70.3,74.4400005 79.66,74.4400005 Z M116.26,74 L124.66,74 L111.7,57.02 L124.66,44 L115.84,44 L103,57.08 L103,32 L97,32 L97,74 L103,74 L103,65.24 L107.32,61.4 L116.26,74 Z M140,69.5 C140,72.0460526 141.953947,74 144.5,74 C147.046053,74 149,72.0460526 149,69.5 C149,66.9539474 147.046053,65 144.5,65 C141.953947,65 140,66.9539474 140,69.5 L140,69.5 Z M128,44 L128,74 L135,74 L135,44 L128,44 Z" id="vicki"></path>
        </g>
    </g>
</svg>