<?xml version="1.0" encoding="UTF-8" standalone="no"?>
<svg width="120px" height="45px" viewBox="0 0 120 45" version="1.1" xmlns="http://www.w3.org/2000/svg" xmlns:xlink="http://www.w3.org/1999/xlink">
    <title>vicki</title>
    <defs></defs>
    <g id="Page-1" stroke="none" stroke-width="1" fill="none" fill-rule="evenodd">
        <g id="Desktop-Copy-2" transform="translate(-50.000000, -50.000000)" fill="#333333">
            <path d="M68.36,94 L81.68,64 L74.3,64 L65.84,84.82 L57.38,64 L50,64 L63.32,94 L68.36,94 Z M77,54.56 C77,57.14 78.98,59.12 81.56,59.12 C84.14,59.12 86.12,57.14 86.12,54.56 C86.12,51.98 84.14,50 81.56,50 C78.98,50 77,51.98 77,54.56 L77,54.56 Z M85.76,64 L85.76,94 L92.76,94 L92.76,64 L85.76,64 Z M98.6,79.06 C98.6,88.3 104.9,94.72 114.26,94.72 C119.3,94.72 123.2,92.8 125.72,90.28 L122,85.12 C120.08,86.92 117.56,88.42 114.26,88.42 C109.16,88.42 105.26,84.7 105.26,79 C105.26,73.24 109.16,69.58 114.32,69.58 C117.5,69.58 119.84,70.96 121.7,72.76 L125.6,67.66 C122.9,64.96 119.18,63.28 114.5,63.28 C105.08,63.28 98.6,69.82 98.6,79.06 L98.6,79.06 Z M149.96,94 L158.36,94 L145.4,77.02 L158.36,64 L149.54,64 L137.18,77.08 L137.18,52 L130.7,52 L130.7,94 L137.18,94 L137.18,85.24 L141.02,81.4 L149.96,94 Z M162.76,64 L162.76,94 L169.76,94 L169.76,64 L162.76,64 Z" id="vicki"></path>
        </g>
    </g>
</svg>
