<?xml version="1.0" encoding="UTF-8" standalone="no"?>
<svg width="133px" height="45px" viewBox="0 0 133 45" version="1.1" xmlns="http://www.w3.org/2000/svg" xmlns:xlink="http://www.w3.org/1999/xlink">
    <!-- Generator: Sketch 3.8.3 (29802) - http://www.bohemiancoding.com/sketch -->
    <title>logo</title>
    <desc>Created with Sketch.</desc>
    <defs></defs>
    <g id="Page-1" stroke="none" stroke-width="1" fill="none" fill-rule="evenodd">
        <g id="Desktop-Copy-2" transform="translate(-50.000000, -50.000000)" fill="#333333">
            <g id="logo" transform="translate(50.000000, 50.000000)">
                <path d="M18.36,44 L31.68,14 L24.3,14 L15.84,34.82 L7.38,14 L0,14 L13.32,44 L18.36,44 Z M27,4.56 C27,7.14 28.98,9.12 31.56,9.12 C34.14,9.12 36.12,7.14 36.12,4.56 C36.12,1.98 34.14,0 31.56,0 C28.98,0 27,1.98 27,4.56 L27,4.56 Z M35.76,14 L35.76,44 L42.76,44 L42.76,14 L35.76,14 Z M48.6,29.06 C48.6,38.3 54.9,44.72 64.26,44.72 C69.3,44.72 73.2,42.8 75.72,40.28 L72,35.12 C70.08,36.92 67.56,38.42 64.26,38.42 C59.16,38.42 55.26,34.7 55.26,29 C55.26,23.24 59.16,19.58 64.32,19.58 C67.5,19.58 69.84,20.96 71.7,22.76 L75.6,17.66 C72.9,14.96 69.18,13.28 64.5,13.28 C55.08,13.28 48.6,19.82 48.6,29.06 L48.6,29.06 Z M99.96,44 L108.36,44 L95.4,27.02 L108.36,14 L99.54,14 L87.18,27.08 L87.18,2 L80.7,2 L80.7,44 L87.18,44 L87.18,35.24 L91.02,31.4 L99.96,44 Z M112.76,14 L112.76,44 L119.76,44 L119.76,14 L112.76,14 Z" id="vicki"></path>
                <circle id="dot" transform="translate(128.500000, 39.500000) scale(-1, 1) rotate(90.000000) translate(-128.500000, -39.500000) " cx="128.5" cy="39.5" r="4.5"></circle>
            </g>
        </g>
    </g>
</svg>